<?xml version="1.0" encoding="utf-8"?>
<!-- Generator: Adobe Illustrator 26.5.0, SVG Export Plug-In . SVG Version: 6.00 Build 0)  -->
<svg version="1.1" id="Layer_1" xmlns="http://www.w3.org/2000/svg" xmlns:xlink="http://www.w3.org/1999/xlink" x="0px" y="0px"
	 viewBox="0 0 51.2 38.4" style="enable-background:new 0 0 51.2 38.4;" xml:space="preserve">
<style type="text/css">
	.st0{fill:#FFFFFF;}
	.st1{font-family:'Lato-Black';}
	.st2{font-size:4.6682px;}
	.st3{font-family:'Lato-BoldItalic';}
	.st4{font-family:'Lato-Italic';}
	.st5{font-size:5.3631px;}
</style>
<text transform="matrix(1 0 0 1 11.0473 27.1011)"><tspan x="0" y="0" class="st0 st1 st2">Dev</tspan><tspan x="9.5" y="0" class="st0 st3 st2">grocery</tspan></text>
<text transform="matrix(1 0 0 1 30.6059 22.2672)" class="st0 st4 st5">.com</text>
<g>
	<path class="st0" d="M28.9,19.3c-0.1,0.3-0.1,0.6-0.2,0.9c-0.1,0.5-0.4,1-0.7,1.5c-0.4,0.5-0.9,0.7-1.6,0.8c-0.3,0-0.5,0-0.8,0
		c-0.3,0-0.4-0.1-0.4-0.4c0.1-0.9,0.5-1.6,1.3-2c0.1,0,0.1-0.1,0.2-0.1c0.2,0,0.3,0.1,0.3,0.2c0.1,0.1,0,0.2-0.1,0.3
		c-0.1,0.1-0.2,0.1-0.2,0.1c-0.5,0.2-0.7,0.7-0.8,1.2c0.4,0.1,0.8,0,1.2-0.2c0.4-0.2,0.6-0.5,0.8-0.9c0.3-0.6,0.4-1.2,0.4-1.8
		c0-0.1,0-0.2,0-0.3c-0.5,0.1-1,0.2-1.5,0.4c-0.5,0.2-0.9,0.4-1.2,0.8c-0.5,0.5-0.6,1.1-0.6,1.8c0,0.1,0,0.2,0,0.3
		c0,0.2-0.1,0.3-0.3,0.3c-0.2,0-0.3-0.1-0.3-0.3c0-0.1,0-0.2,0-0.3c0-0.3,0-0.7,0-1c0-0.1-0.1-0.3-0.1-0.4c-0.2-0.3-0.4-0.6-0.7-0.8
		c-0.7-0.5-1.6-0.8-2.4-0.9c0,0.1,0,0.2,0,0.2c0,0.7,0.2,1.4,0.6,2c0.4,0.6,1,0.8,1.6,0.8c0.1,0,0.1,0,0.2-0.1
		c-0.1-0.6-0.4-1-0.8-1.2c-0.1,0-0.1,0-0.2-0.1c-0.2-0.1-0.2-0.2-0.2-0.4c0.1-0.1,0.2-0.2,0.4-0.1c0.4,0.1,0.7,0.3,0.9,0.6
		c0.3,0.4,0.5,0.9,0.5,1.4c0,0.3-0.1,0.4-0.4,0.5c-1.1,0.3-2.2-0.2-2.8-1.2c-0.5-0.9-0.6-1.8-0.6-2.8c0-0.2,0.1-0.3,0.3-0.3
		c0.5,0.1,1,0.2,1.5,0.3c0.3,0.1,0.6,0.2,0.9,0.3c0.1-0.2,0.1-0.5,0.2-0.7c0.3-0.7,0.7-1.4,1.2-2c0.2-0.2,0.4-0.3,0.6,0
		c0.3,0.4,0.7,0.8,1,1.2c0.2,0.3,0.3,0.7,0.5,1.1c0,0.1,0,0.1,0.1,0.2c0.1,0,0.2-0.1,0.4-0.1c0.5-0.1,1-0.2,1.5-0.3
		c0.1,0,0.3,0,0.4,0.1C28.9,18.6,28.9,19,28.9,19.3z M24.9,19.6c0.4-0.3,0.7-0.6,1.1-0.9c-0.1-0.8-0.6-1.5-1.2-2.2
		c-0.5,0.7-0.9,1.4-1.1,2.2c0,0.1,0,0.2,0.1,0.3c0.1,0.1,0.3,0.3,0.5,0.4c0.1-0.3,0.1-0.5,0.2-0.7c0.1-0.3,0.2-0.4,0.5-0.3
		c0.2,0.1,0.2,0.2,0.1,0.5C24.9,19.1,24.9,19.4,24.9,19.6z"/>
	<path class="st0" d="M24.3,5.2c1,0.2,1.3,1.2,1.4,2.1c0.1,0.9,0.1,1.8,0,2.7c0,0.4-0.1,0.4-0.7,0.5c0-0.3,0.1-0.6,0.1-0.8
		c0.1-0.8,0.1-1.7,0-2.5c-0.1-0.3-0.2-0.6-0.4-0.9c-0.2-0.4-0.6-0.5-1.1-0.4c-0.5,0.1-0.9,0.5-1.3,0.9c-0.9,0.9-1.5,2-2,3.2
		c-0.1,0.2-0.2,0.4-0.3,0.6c-0.2-0.1-0.3-0.1-0.5-0.2c0-0.1,0-0.1,0-0.2c0.5-1.3,1.1-2.5,2-3.6c0.5-0.6,1.1-1.3,1.9-1.4
		C23.7,5.2,24,5.2,24.3,5.2z"/>
	<path class="st0" d="M16.8,5.2c0.2,0,0.3,0.1,0.4,0.2c0.7,0.4,1.1,1,1.1,1.8c0,0.1,0,0.3,0,0.4c0,0.2-0.1,0.2-0.3,0.3
		c-0.2,0-0.3-0.1-0.3-0.2c0-0.1,0-0.3-0.1-0.4c-0.1-0.9-0.5-1.3-1.3-1.5c0,0,0,0-0.1,0c-0.4-0.1-0.7-0.3-0.3-0.6
		C16.3,5.1,16.6,5.2,16.8,5.2z"/>
	<path class="st0" d="M11.6,17.7c0-1.3,0-2.6,0-4c0-0.3,0.1-0.6,0.2-0.8c0.3-0.7,0.7-1.4,1-2.1c0.1-0.2,0.2-0.4,0-0.5
		c-0.1-0.1-0.1-0.2-0.1-0.3c0-0.2,0-0.4,0-0.6c0-0.3,0.2-0.5,0.5-0.5c0.8,0,1.5,0,2.3,0C15.8,8.8,16,9,16,9.3c0,0.2,0,0.4,0,0.6
		c0,0.1-0.1,0.2-0.1,0.3c-0.1,0.1-0.1,0.3,0,0.4c0.3,0.7,0.7,1.4,1,2c0.2,0.3,0.2,0.7,0.2,1.1c0,2.6,0,5.2,0,7.8c0,0.1,0,0.2,0,0.3
		c0,0.3-0.2,0.5-0.5,0.5c-0.1,0-0.1,0-0.2,0c-1.3,0-2.7,0-4,0c-0.4,0-0.7-0.3-0.7-0.7C11.6,20.4,11.6,19,11.6,17.7z M14.4,15.1
		c-0.8,0-1.6,0.5-1.6,1.5c0,0.8,0.5,1.6,1.5,1.6c0.8,0,1.6-0.5,1.6-1.5C16,15.9,15.4,15.2,14.4,15.1z M15.4,9.4c-0.7,0-1.4,0-2.1,0
		c0,0.2,0,0.3,0,0.4c0.7,0,1.4,0,2.1,0C15.4,9.7,15.4,9.6,15.4,9.4z"/>
	<path class="st0" d="M16.5,11c0.4-0.2,0.8-0.2,1.2-0.1c0.4,0.2,0.7,0.2,1.1,0c0.4-0.2,0.8-0.2,1.2,0c0.3,0.1,0.6,0.1,1,0
		c0.4-0.2,0.8-0.2,1.2,0c0.3,0.2,0.7,0.1,1,0c0.4-0.2,0.8-0.2,1.2,0c0.4,0.2,0.7,0.2,1.1,0c0.1-0.1,0.3-0.1,0.4-0.1
		c0.3,0,0.4,0.1,0.4,0.3c0,0.2,0,0.4,0,0.6c-0.1,0.8-0.1,1.6-0.2,2.4c0,0.5-0.1,1.1-0.1,1.6c0,0,0,0.1-0.1,0.1
		c-0.1-0.1-0.3-0.3-0.4-0.4c-0.3-0.3-0.8-0.3-1.1,0c-0.1,0.1-0.2,0.2-0.3,0.3c-0.1,0.1-0.2,0.2-0.3,0.3c0-0.1,0-0.2,0-0.3
		c0-0.5,0-0.9,0-1.4c0-0.4-0.1-0.8-0.5-1c-0.6-0.4-1.5-0.1-1.6,0.6c0,0.2,0,0.3,0,0.5c0,0.9,0,1.8,0,2.7c0,0.1,0,0.2,0,0.4
		c-0.5,0-0.9,0-1.4-0.1c0-0.1,0-0.2,0-0.3c0-0.9,0-1.8,0-2.7c0-0.3,0-0.6-0.2-0.9c-0.3-0.3-0.7-0.5-1.1-0.4
		c-0.4,0.1-0.6,0.3-0.7,0.7c0,0.2-0.1,0.4-0.1,0.5c0,1.3,0,2.7,0,4c0,0.1,0,0.3,0,0.4c0.1,0.8,1,1.1,1.6,0.7c0,0,0.1,0,0.2-0.1
		c0,0.1,0.1,0.3,0.1,0.4c0.2,0.7,0.4,1.4,0.9,1.9c0.1,0.2,0.3,0.3,0.4,0.4c-0.2,0.1-3.5,0.1-3.9,0c0.1-1.4,0-2.9,0.1-4.3
		c0-1.4,0-2.9,0-4.3c0-0.5-0.1-1-0.3-1.4c-0.2-0.4-0.4-0.7-0.6-1.1C16.6,11.2,16.5,11.1,16.5,11z"/>
	<path class="st0" d="M18.7,6.3c0.7,0.1,1.2,0.4,1.6,0.8c0.1,0.1,0.1,0.2,0,0.3c-0.1,0.2-0.2,0.4-0.3,0.6c-0.3,0.6-0.6,1.3-0.9,1.9
		c-0.1,0.2-0.1,0.4-0.4,0.5c-0.3,0.1-0.6,0.2-0.9,0.1c-0.1,0-0.1,0-0.2-0.1c-0.4-0.2-0.7-0.2-1.1,0c-0.1,0-0.2,0-0.3,0.1
		c0.1-0.5,0.2-0.9,0.1-1.3c-0.1-0.5-0.4-0.7-0.8-0.8c-0.2,0-0.4,0-0.7-0.1c0-0.1,0-0.1,0-0.1c0.4-0.7,0.9-1.3,1.7-1.6
		c0.3-0.1,0.3-0.1,0.5,0.1c0.1,0.2,0.1,0.4,0.2,0.6c0,0.1,0,0.3,0,0.4c0.1,0.5,0.4,0.7,0.8,0.7c0.6-0.1,0.7-0.5,0.7-0.9
		c0-0.3-0.1-0.6-0.1-0.9C18.7,6.5,18.7,6.5,18.7,6.3z"/>
	<path class="st0" d="M19.8,16.6c0,0.8,0,1.5,0,2.3c0,0.4-0.3,0.6-0.6,0.6c-0.2,0-0.4-0.2-0.5-0.5c0-0.1,0-0.1,0-0.2
		c0-1.5,0-3,0-4.4c0-0.1,0-0.3,0.1-0.4c0.1-0.2,0.4-0.3,0.6-0.2c0.2,0.1,0.4,0.3,0.4,0.5c0,0.2,0,0.4,0,0.6
		C19.8,15.5,19.8,16.1,19.8,16.6C19.8,16.6,19.8,16.6,19.8,16.6z"/>
	<path class="st0" d="M22.8,18c-0.1,0-0.3-0.1-0.5-0.1c-0.1,0-0.1-0.1-0.2-0.2c0-0.1,0-0.3,0-0.4c0-1,0-1.9,0-2.9
		c0-0.4,0.2-0.6,0.5-0.6c0.4,0,0.6,0.2,0.6,0.6c0,0.6,0,1.2,0,1.8C23.3,16.9,23.1,17.4,22.8,18C22.8,18,22.8,18,22.8,18z"/>
	<path class="st0" d="M23.7,9.3c-0.5,0-0.9-0.2-1.3-0.4c-0.1-0.1-0.2-0.2-0.3-0.3c-0.3-0.4-0.1-0.9,0.3-1.1c0,0,0.1,0,0.1,0
		c0.6-0.2,1.6,0.2,2,0.6c0.2,0.2,0.2,0.4,0.1,0.7c-0.1,0.3-0.3,0.4-0.6,0.4C23.9,9.3,23.8,9.3,23.7,9.3z"/>
	<path class="st0" d="M21.3,10.3c0.4-0.4,1.2-0.4,1.9,0.1c-0.3,0.2-0.6,0.3-0.9,0.2C22,10.5,21.7,10.4,21.3,10.3z"/>
	<path class="st0" d="M24.9,19.6c0-0.2,0-0.5,0.1-0.7c0.1-0.3,0.1-0.5-0.1-0.5c-0.2-0.1-0.4,0-0.5,0.3c-0.1,0.2-0.1,0.5-0.2,0.7
		c-0.1-0.1-0.3-0.2-0.5-0.4c-0.1-0.1-0.1-0.2-0.1-0.3c0.2-0.8,0.6-1.5,1.1-2.2c0.6,0.7,1.1,1.3,1.2,2.2C25.6,19,25.3,19.3,24.9,19.6
		z"/>
	<path class="st0" d="M14.4,15.1c1.1,0.1,1.6,0.8,1.5,1.6c-0.1,1.1-0.8,1.6-1.6,1.5c-1.1-0.1-1.6-0.8-1.5-1.6
		C12.8,15.5,13.6,15.1,14.4,15.1z"/>
	<path class="st0" d="M15.4,9.4c0,0.2,0,0.3,0,0.4c-0.7,0-1.4,0-2.1,0c0-0.1,0-0.3,0-0.4C14,9.4,14.7,9.4,15.4,9.4z"/>
</g>
</svg>
